<?xml version="1.0" encoding="UTF-8"?>
<svg id="Layer_2" data-name="Layer 2" xmlns="http://www.w3.org/2000/svg" viewBox="0 0 465.09 171.32">
  <defs>
    <style>
      .cls-1 {
        font-family: ForteMT, Forte;
        font-size: 40px;
      }

      .cls-1, .cls-2 {
        fill: #000;
      }

      .cls-3 {
        letter-spacing: 0em;
      }

      .cls-2, .cls-4 {
        stroke-width: 0px;
      }

      .cls-5 {
        letter-spacing: 0em;
      }

      .cls-4 {
        fill: #930c16;
      }

      .cls-6 {
        letter-spacing: 0em;
      }

      .cls-7 {
        letter-spacing: .02em;
      }

      .cls-8 {
        letter-spacing: -.02em;
      }

      .cls-9 {
        letter-spacing: -.02em;
      }
    </style>
  </defs>
  <g id="Layer_1-2" data-name="Layer 1">
    <path class="cls-4" d="M215.41,0l-5.76,27.04h-38.08c-2.99,0-4.85,1.5-5.6,4.48l-10.4,48.8c-.32,1.39-.16,2.51.48,3.36.64.85,1.65,1.28,3.04,1.28h38.08l-5.76,27.04h-60.96c-4.59,0-7.98-1.38-10.16-4.16-2.19-2.77-2.75-6.45-1.68-11.04l16.32-76.64L122.45,0h92.96Z"/>
    <path class="cls-2" d="M158.92,81.2l10.8-50.4h34.2l-2.59,12.17h-19.22l-1.37,6.48h15.62l-2.09,9.79h-15.62l-2.09,9.79h19.15l-2.59,12.17h-34.2Z"/>
    <path class="cls-2" d="M128.19,122.67l-5.54-9.07h29.66l-.22,50.4h-15.05v-8.14h-13.25l-3.6,8.14h-10.44l18.43-41.33ZM128.12,146.07h9v-20.38l-9,20.38Z"/>
    <path class="cls-2" d="M166.89,157.57l-.33.27c-.07.04-.5.37-1.31,1-1.56,1.22-2.85,2.19-3.87,2.9-1.02.71-1.86,1.23-2.54,1.56-.68.33-1.22.5-1.64.5-.7,0-1.27-.29-1.69-.87-.42-.58-.63-1.33-.63-2.26,0-1.56.23-3.38.7-5.46.47-2.08,1.1-4.12,1.89-6.14.87-2.24,1.94-3.61,3.2-4.1.44-.2.96-.29,1.56-.29.82,0,1.48.25,1.99.76s.76,1.18.76,2.01c0,.57-.11,1.18-.3,1.82-.2.64-.51,1.4-.94,2.28l-.23.57c-1.12,2.37-1.68,3.81-1.68,4.32,0,.3.1.45.31.45.2,0,.45-.14.76-.41s.79-.77,1.45-1.5c.4-.49.98-1.11,1.72-1.86l.72-.72.63-.66c1.32-1.3,2.39-2.24,3.23-2.82.83-.58,1.53-.87,2.07-.87,1.04,0,1.56.91,1.56,2.71,0,.38-.05,1.05-.14,2.01-.16,1.88-.23,3.46-.23,4.77.01.26.02.5.03.71,0,.21,0,.49,0,.83.09.87.16,1.54.2,2.01l.14,1.11c0,.39-.35.74-1.05,1.04-.7.3-1.52.45-2.44.45-.85,0-1.57-.17-2.18-.5s-1.06-.82-1.38-1.47c-.31-.65-.47-1.45-.47-2.38,0-.12.01-.32.04-.62.03-.29.05-.67.08-1.14Z"/>
    <path class="cls-2" d="M179.77,144.8l.08-.23c.86-2.42,1.6-4.13,2.23-5.12.3-.47.72-.89,1.25-1.25,1-.64,1.95-.96,2.84-.96.52,0,.92.12,1.19.35.27.23.41.57.41,1.02,0,.3-.2.91-.59,1.83-.67,1.54-1.17,2.97-1.49,4.32.22.03.44.07.65.12.78.12,1.3.25,1.54.4.25.15.37.42.37.81,0,.69-.18,1.33-.53,1.91-.35.59-.81,1.02-1.39,1.29-.43.2-1.12.33-2.09.39-.17.51-.35,1.21-.56,2.09-.12.78-.24,1.86-.39,3.24-.08.51-.12.98-.12,1.42,0,2.06,1,3.08,2.99,3.08h.18c.23,0,.35.04.35.12,0,.21-.22.56-.66,1.05-.44.5-.93.93-1.46,1.31-.57.39-1.2.7-1.88.94-.68.23-1.29.35-1.84.35-1.37,0-2.48-.46-3.34-1.39-.85-.92-1.28-2.15-1.28-3.67,0-.65.11-1.5.34-2.56.23-1.05.58-2.47,1.06-4.24.08-.31.16-.64.25-.99.09-.34.14-.55.16-.62-.52-.01-.89-.12-1.11-.33-.22-.21-.33-.55-.33-1.02,0-.82.32-1.59.95-2.32.63-.73,1.37-1.18,2.22-1.37Z"/>
    <path class="cls-2" d="M202.85,144.04c1.94,0,2.91.23,2.91.68,0,.52-.44.8-1.31.84-1.05.07-2.04.36-2.95.9-.91.53-1.72,1.26-2.43,2.19-.71.92-1.26,1.97-1.66,3.12-.4,1.16-.6,2.38-.6,3.67,0,1.42.33,2.56,1,3.43.66.87,1.53,1.3,2.6,1.3.99,0,1.86-.51,2.6-1.52s1.11-2.2,1.11-3.55c0-1.11-.23-2.15-.69-3.12-.46-.97-1.14-1.79-2.02-2.45-.38-.3-.57-.51-.57-.64,0-.18.27-.46.8-.84.6-.4,1.27-.74,2.01-1.02s1.37-.41,1.88-.41c.59,0,1.14.15,1.67.46.53.31.99.74,1.4,1.31.4.57.71,1.22.93,1.95.21.74.32,1.52.32,2.35,0,1.38-.26,2.74-.78,4.09-.52,1.35-1.2,2.44-2.05,3.27-1.09,1.05-2.41,1.92-3.96,2.59-1.54.67-3.01,1.01-4.4,1.01s-2.7-.23-4.03-.7c-1.33-.47-2.39-1.09-3.17-1.86-1.04-1.04-1.56-2.52-1.56-4.43,0-1.51.37-3.02,1.11-4.53.74-1.51,1.75-2.88,3.02-4.11s2.67-2.2,4.2-2.91c1.53-.71,3.08-1.06,4.64-1.06Z"/>
    <path class="cls-2" d="M237.57,122.67l-5.62-9.07h40.03c2.06,0,3.59.62,4.57,1.87.98,1.25,1.23,2.9.76,4.97l-4.1,19.08c-.43,2.06-1.4,3.72-2.92,4.97-1.51,1.25-3.3,1.87-5.36,1.87h-.14l3.96,17.64h-15.12l-3.74-17.64h-2.38l-3.67,17.64h-15.12l8.86-41.33ZM249.6,136.57h7.13c1.34,0,2.18-.67,2.52-2.02l1.44-6.77c.14-.62.07-1.12-.22-1.48s-.74-.54-1.37-.54h-7.2l-2.3,10.8Z"/>
    <path class="cls-2" d="M278.99,158.55c.14.78.65,1.17,1.52,1.17.98,0,2.25-.57,3.81-1.72.91-.66,1.52-1,1.84-1,.39,0,.75.1,1.09.31.34.21.51.42.51.64,0,.23-.19.54-.57.92-.69.69-1.48,1.36-2.38,2.02-.9.66-1.76,1.2-2.6,1.64-.83.44-1.67.78-2.5,1.04-.83.25-1.58.38-2.23.38-1.63,0-2.93-.47-3.91-1.4-.98-.93-1.46-2.17-1.46-3.72,0-1.18.26-2.52.77-4.01.51-1.49,1.21-2.89,2.08-4.19,1.03-1.52,2.29-2.79,3.79-3.81,1.85-1.22,3.62-1.84,5.31-1.84,1.22,0,2.18.39,2.88,1.16.7.77,1.04,1.84,1.04,3.19,0,1.05-.28,2.16-.83,3.3-.55,1.15-1.37,2.25-2.45,3.3-.89.89-1.75,1.58-2.61,2.07-.85.5-1.6.74-2.24.74-.29,0-.58-.07-.88-.21ZM278.95,157.93c.6-.4,1.05-.81,1.37-1.21.69-.85,1.22-1.82,1.6-2.91.3-.72.53-1.52.7-2.4.17-.89.25-1.71.25-2.48,0-.72-.15-1.07-.45-1.07-.42,0-1.05.92-1.91,2.75-.51,1.11-.92,2.21-1.24,3.31-.32,1.1-.48,2.05-.48,2.84,0,.27.05.66.16,1.17Z"/>
    <path class="cls-2" d="M298.6,151.2l.61-1.14c.57-1.01,1.11-1.85,1.59-2.52.49-.67.92-1.17,1.3-1.48.38-.31.83-.57,1.35-.77.43-.17.9-.26,1.41-.26.99,0,1.87.29,2.63.88s1.35,1.43,1.76,2.52c.41,1.09.62,2.35.62,3.77,0,2.04-.46,4.01-1.38,5.89-.92,1.88-2.12,3.4-3.61,4.56-1.49,1.16-3.03,1.74-4.62,1.74-.92,0-1.7-.2-2.31-.59-.62-.39-1.19-1.06-1.71-2.01l-.13.33-.12.43c-.85,2.72-1.52,4.72-2.02,6.01-.5,1.28-.93,2.07-1.3,2.35-.29.27-.62.41-1,.41-.74,0-1.32-.36-1.74-1.09-.42-.73-.62-1.75-.62-3.07,0-1.43.16-3.15.47-5.16s.75-4.05,1.3-6.13c.55-2.08,1.17-3.98,1.84-5.68.44-1.04.93-1.95,1.46-2.73s1.04-1.35,1.52-1.7c.35-.21.73-.31,1.13-.31.6,0,1.06.16,1.38.49.32.33.49.79.49,1.4,0,.51-.05,1.07-.16,1.69-.08.6-.15,1.3-.21,2.08l.08.1ZM297.11,159.53c.36,1.07,1.05,1.6,2.07,1.6.72,0,1.38-.32,2-.97.62-.64,1.11-1.52,1.48-2.62.37-1.1.56-2.26.56-3.47,0-.96-.08-1.8-.22-2.5-.15-.7-.32-1.05-.5-1.05-.13,0-.46.35-1,1.04-.53.69-1.07,1.49-1.6,2.4-1.09,1.77-1.92,3.33-2.48,4.69-.14.35-.25.64-.31.88Z"/>
    <path class="cls-2" d="M324.73,158.32v.08l-.08-.08c-1.21,1.42-2.32,2.58-3.33,3.49-1.01.91-1.94,1.59-2.79,2.04-.85.46-1.64.68-2.35.68-1.46,0-2.66-.49-3.61-1.46-.95-.98-1.43-2.21-1.43-3.71,0-.92.23-2.02.7-3.28.47-1.26,1.11-2.5,1.93-3.71,1.37-1.98,3.09-3.66,5.16-5.04,2.14-1.42,4.19-2.13,6.17-2.13,1.67,0,3.04.34,4.11,1.03s1.61,1.55,1.61,2.59c0,.77-.27,1.58-.8,2.44.7,0,1.15.08,1.33.22.18.15.27.5.27,1.04,0-.05-.03.21-.1.8-.08,1.29-.12,2.49-.12,3.61,0,.59,0,1.03.02,1.33.01.3.04.64.08,1.04s.08.7.12.94c.1.61.27,1.22.51,1.82-.78.77-1.53,1.33-2.25,1.69-.72.36-1.45.54-2.19.54-2.01,0-3.01-1.68-3.01-5.04,0-.39.01-.7.04-.92ZM325.9,153.84l-.37.12c-.94.26-1.61.39-2.03.39-.51,0-.76-.13-.76-.39,0-.09.1-.33.31-.72.73-1.11,1.09-2.15,1.09-3.12,0-.56-.1-1.07-.29-1.53-.2-.46-.41-.69-.64-.69-.21,0-.53.22-.96.66-1.21,1.32-2.17,2.66-2.88,4.04-.71,1.38-1.06,2.61-1.06,3.69,0,.72.15,1.31.44,1.78s.66.7,1.1.7c.38,0,1.08-.4,2.12-1.21,1.04-.81,2.2-1.88,3.49-3.2l.53-.43-.08-.08Z"/>
    <path class="cls-2" d="M336.29,164.2c-.58-.04-1.12-.31-1.6-.8-.48-.52-.82-1.08-1.02-1.69-.2-.61-.3-1.39-.3-2.35,0-2.15.4-4.57,1.2-7.28.8-2.7,1.71-4.66,2.72-5.87.4-.51.96-.76,1.68-.76.75,0,1.36.35,1.83,1.04s.69,1.59.69,2.71c0,1.65-.24,3.59-.71,5.81s-1.15,4.53-2.01,6.92c-.34.96-.75,1.62-1.25,1.95-.34.21-.73.31-1.19.31h-.04ZM338.64,144.57c-1.22-.04-1.84-.77-1.84-2.21,0-.72.18-1.55.54-2.49.36-.94.76-1.64,1.22-2.1.23-.25.47-.42.71-.53.24-.1.55-.16.93-.16.65,0,1.13.16,1.44.48.31.32.46.85.46,1.59,0,.92-.16,1.8-.48,2.63-.32.83-.75,1.5-1.28,2.01-.53.51-1.08.77-1.64.77h-.06Z"/>
    <path class="cls-2" d="M350.04,158.04l-.08.39c0,.22-.03.54-.08.96-.05.64-.12,1.16-.21,1.56-.09.4-.23.74-.41,1.01-.18.27-.43.55-.74.85-.95.87-1.91,1.31-2.87,1.31-.78,0-1.36-.29-1.73-.86-.37-.57-.56-1.5-.56-2.77,0-1.02.11-2.27.34-3.76.23-1.49.5-2.83.83-4.01l.16-.51c0-.08.04-.24.12-.49.48-1.77.92-3.08,1.33-3.94.4-.85.89-1.54,1.46-2.06.51-.4,1.08-.61,1.72-.61.92,0,1.48.56,1.68,1.68.18-.16.36-.34.53-.55.38-.46.67-.76.88-.91.21-.15.45-.22.72-.22,1.12,0,1.68,1.11,1.68,3.32,0,1.21-.13,2.38-.39,3.52-.26,1.13-.59,2.06-.99,2.77-.4.72-.79,1.07-1.18,1.07-.43,0-.64-.81-.64-2.44,0-.86-.05-1.53-.15-2.02s-.25-.87-.46-1.14c-.39.73-.64,2.4-.76,5-.09,1.51-.16,2.46-.2,2.85Z"/>
    <text/>
    <text class="cls-1" transform="translate(196.38 80.9)"><tspan class="cls-7" x="0" y="0">u</tspan><tspan class="cls-9" x="21.83" y="0">r</tspan><tspan class="cls-8" x="34.1" y="0">o</tspan><tspan class="cls-5" x="55.03" y="0">p</tspan><tspan class="cls-6" x="76.91" y="0">e</tspan><tspan class="cls-3" x="93.92" y="0">a</tspan><tspan x="116.35" y="0">n</tspan></text>
  </g>
</svg>